<?xml version="1.0" encoding="utf-8"?>
<!-- Generator: Adobe Illustrator 27.7.0, SVG Export Plug-In . SVG Version: 6.00 Build 0)  -->
<svg version="1.1" id="Layer_1" xmlns="http://www.w3.org/2000/svg" xmlns:xlink="http://www.w3.org/1999/xlink" x="0px" y="0px"
	 viewBox="0 0 600 228" style="enable-background:new 0 0 600 228;" xml:space="preserve">
<style type="text/css">
	.st0{fill:#A8A8A8;}
</style>
<g>
	<g>
		<path class="st0" d="M82.9,53.5c0.6,0.2,1.3,0.3,1.9,0.5c4.4,1.2,7.2,4.1,8.4,8.5c0.3,1.3,0.5,2.6,0.5,4c0.1,5.1,0,10.1,0,15.2
			c0,0.2,0,0.4,0,0.6c1.3,0,2.6,0,3.9,0c0.1,0,0.3,0,0.4,0c1.5,0.1,2.2-0.7,2.5-2c0.6-2.7,1.1-5.5,1.6-8.2c0.3-1.5,0.5-3,1-4.4
			c0.8-2.3,1.8-3.7,4.7-4c0.7-0.1,1.3-0.1,2-0.1c0.3,0,0.5-0.1,0.7-0.4c0.5-0.9,1-1.9,1.7-2.7c1.3-1.7,3-2.8,5.3-2.8
			c2.3,0,4.2,0.7,5.8,2.3c2.6,2.6,3,6.6,0.9,9.6c-1.2,1.6-2.7,2.8-4.7,3.2c-2.1,0.5-4,0.1-5.8-1.2c-1.4-1.1-2.3-2.4-3-4
			c-0.3-0.6-0.6-0.9-1.3-0.8c-0.4,0.1-0.9,0.1-1.3,0.1c-1.1,0.1-1.6,0.8-1.8,1.7c-0.7,3.2-1.3,6.4-2,9.5c-0.3,1.4-0.6,2.8-1.1,4.1
			c-0.7,1.9-2.2,3-4.2,3.2c-1.6,0.2-3.1,0.1-4.7,0.1c-0.2,0-0.4,0-0.6,0c0,3,0,5.9,0,8.8c0.4,0,0.7,0.1,1.1,0.1c3.2,0,6.5,0,9.7,0
			c1.2,0,1.6-0.3,2-1.5c0.7-2.1,1.4-4.3,2.1-6.4c0.4-1.1,0.7-2.3,1.6-3.3c0.7-0.8,1.6-1.3,2.6-1.4c2.2-0.1,4.4-0.1,6.6-0.1
			c0.1,0,0.2,0,0.3,0c0.5-1.5,1.1-2.9,2.3-3.9c2.2-2.1,5.4-2.7,8.2-1.5c2.3,1,3.9,2.7,4.5,5.2c0.6,2.7,0.1,5.1-1.8,7.2
			c-1.6,1.7-3.5,2.5-5.7,2.4c-1.9-0.1-3.6-0.7-5-2.1c-0.9-0.9-1.6-1.9-2-3.1c-0.2-0.7-0.6-0.9-1.4-0.9c-1.3,0-2.6,0.1-3.8,0
			c-2.5-0.2-2.5,0.7-3.1,2.4c-0.8,2.4-1.5,4.7-2.4,7c-0.8,2.3-2.6,3.4-5.1,3.4c-3.3,0-6.6,0-9.9,0c-0.2,0-0.4,0-0.7,0
			c0,2.7,0,5.4,0,8.1c11.8,0,23.5,0,35.3,0c0.6-2,1.6-3.6,3.4-4.8c1.8-1.2,3.8-1.5,5.8-1c3.8,0.9,6.2,4.1,5.9,8.2
			c-0.2,3.5-2.8,6-6,6.8c-4.4,1-7.6-1.7-9.2-5.8c-11.7,0-23.4,0-35.2,0c0,2.7,0,5.3,0,8.1c0.2,0,0.4,0,0.6,0c3.3,0,6.7,0,10,0
			c1,0,2,0.1,2.9,0.7c1.1,0.6,1.7,1.6,2.1,2.8c0.9,2.7,1.8,5.4,2.7,8.1c0.3,1,0.7,1.2,1.7,1.2c1.8,0,3.6,0,5.4,0
			c0.3,0,0.5-0.1,0.6-0.5c0.5-1.3,1.1-2.5,2.1-3.5c1.4-1.3,3-2,4.9-2.1c2.3-0.1,4.3,0.6,5.9,2.3c1.3,1.4,2,3,2.1,4.9
			c0.2,2.4-0.6,4.5-2.3,6.1c-1.2,1.1-2.5,1.7-4.1,2c-2,0.4-3.8-0.1-5.4-1.4c-1.1-0.8-2-1.9-2.6-3.2c-0.2-0.4-0.3-0.8-0.6-1.2
			c-0.1-0.1-0.3-0.2-0.4-0.2c-1.8,0-3.7,0-5.5,0c-1.9,0-3.5-0.7-4.3-2.5c-0.7-1.5-1.2-3-1.7-4.5c-0.5-1.6-1-3.1-1.6-4.7
			c-0.2-0.6-0.6-1.1-1.4-1.1c-3.5,0-7,0-10.5,0c-0.2,0-0.3,0-0.6,0c0,3,0,6,0,9c1.4,0,2.8-0.1,4.1,0c0.9,0.1,1.9,0.2,2.8,0.6
			c1.7,0.7,2.6,2.2,3,4c0.7,3.4,1.4,6.9,2.1,10.4c0.2,0.8,0.4,1.7,0.7,2.5c0.3,0.9,1,1.2,1.9,1.3c1.2,0.1,2.1,0,2.7-1.4
			c0.4-1,1.2-1.9,1.9-2.7c1.6-1.6,3.5-2.2,5.8-1.9c2.8,0.4,4.9,1.9,6.1,4.4c1.6,3.3,0.7,7.2-2.5,9.5c-1.8,1.3-3.7,1.7-5.8,1.4
			c-1.6-0.2-3-1.1-4-2.4c-0.8-1-1.3-2.2-2-3.2c-0.1-0.2-0.4-0.3-0.6-0.3c-0.9-0.1-1.8,0-2.7-0.2c-1.6-0.2-2.8-1.2-3.6-2.5
			c-0.7-1.1-0.8-2.3-1.1-3.6c-0.3-1.3-0.5-2.6-0.8-3.9c-0.3-1.3-0.5-2.5-0.7-3.8c-0.3-1.2-0.6-2.3-0.9-3.5c-0.2-0.8-0.9-1.1-1.5-1.1
			c-1.7-0.1-3.3,0-5,0c0,0.2,0,0.4,0,0.6c0,4.1,0.1,8.2,0,12.3c-0.1,3.5-1.3,6.6-3.4,9.4c-1.7,2.2-3.8,3.9-6.3,5.1
			c-1.5,0.7-3.1,1.2-4.8,1.3c-1.1,0.1-2.3,0.2-3.4,0.1c-2.5-0.3-4.9-1-7-2.4c-4-2.5-6.5-6.1-7.5-10.7c-0.1-0.5-0.1-1-0.2-1.5
			c-4.9-0.5-8.7-2.6-11.1-7c-2.4-4.3-2.1-8.7,0.1-13.1c-7.5-5.3-7.5-15.6-1.1-21.1c-3-4.8-3.7-10-1.6-15.3
			c2.1-5.3,6.1-8.6,11.7-10.1c-0.2-1-0.4-2.1-0.6-3.1c-0.3-1.4-0.4-2.7-0.2-4.1c0.3-2.2,1.1-4.3,2.4-6.1c1.6-2.2,3.8-3.8,6.4-4.6
			c0.9-0.3,1.5-0.8,1.9-1.6c1.9-3.5,4.6-6.2,8.5-7.3c0.8-0.2,1.6-0.4,2.4-0.5C80.8,53.5,81.8,53.5,82.9,53.5z M51,108.7
			c-0.1,0.1-0.2,0.1-0.2,0.2c-2.7,2.4-3.7,5.4-3.2,8.9c0.5,3,2,5.2,4.5,6.9c0.4,0.3,0.8,0.5,1.2,0.8c0.7,0.6,0.8,1.2,0.4,2
			c-0.2,0.4-0.5,0.8-0.8,1.2c-1.4,2.2-2.1,4.6-1.3,7.2c0.9,3,2.5,5.6,5.4,7c1.7,0.8,3.5,1,5.3,0.9c1,0,1.5,0.5,1.6,1.5
			c0.1,1,0.2,2,0.4,3c0.7,3.5,2.6,6.2,5.7,8.1c2.9,1.7,5.9,2.8,9.3,2c4.5-1.1,7.9-3.6,9.7-8c0.8-1.9,1.1-3.9,1.1-5.9
			c0-25,0-50.1,0-75.1c0-1.7,0-3.4-0.2-5c-0.2-2.7-1.5-4.8-3.8-6.3c-3.3-2.1-8.1-1.6-11.3,0.8c-1.2,0.9-2.1,2-2.9,3.4
			c0.3,0,0.6,0.1,0.8,0.1c0.3,0,0.5,0.1,0.8,0.1c2.6,0.5,4.8,1.7,6.7,3.5c0.7,0.7,0.7,1.5,0.1,2.2c-0.8,0.8-1.6,0.9-2.6-0.1
			c-2.5-2.3-5.4-3.1-8.7-2.5c-6.3,1.2-9.4,7.9-7.1,13.4c0.4,1,1.2,1.5,2.3,1.6c2,0.1,3.9,0.7,5.6,1.6c0.6,0.3,1.2,0.7,1.7,1
			c0.5,0.4,0.8,0.9,0.7,1.6C72,85.5,71.7,86,71,86.2c-0.8,0.2-1.3-0.2-1.8-0.5c-2.9-1.8-6-2.2-9.3-1.5c-7.8,1.5-11.8,9.2-10.2,15.7
			c0.9,4,3.3,6.8,6.9,8.7c0.7,0.4,1.5,0.7,2.3,1c1.5,0.5,1.6,1.8,0.9,2.7c-0.4,0.6-1.1,0.7-2.2,0.4C55.2,111.9,52.9,110.6,51,108.7z
			 M122.1,150.1c0.2-2.4-2-4.4-4.3-4.4c-2.6,0-4.2,1.9-4.3,4.2c0,2.3,1.6,4.5,4.3,4.5C120.3,154.5,122.3,152.1,122.1,150.1z
			 M136.4,103.3c-2.2-0.2-4.4,1.8-4.4,4.3c0,2.4,2.2,4.4,4.4,4.3c2.4,0,4.3-2,4.4-4.4C140.8,104.9,138.3,103,136.4,103.3z M122.1,65
			c0-2.6-1.8-4.3-4.7-4.3c-2,0-3.9,2-3.9,4.1c0,2.9,2.1,4.5,4.2,4.5C120.4,69.3,122.3,67,122.1,65z M131.4,83.3
			c0-2.7-1.7-4.3-4.6-4.3c-2,0-3.9,2-3.9,4.3c0,2.4,2,4.4,4.2,4.3C129.6,87.6,131.4,85.8,131.4,83.3z M131.4,131.8
			c0.3-2-1.7-4.3-4.3-4.2c-2.3,0-4.3,1.9-4.3,4.2c0,2.4,1.9,4.4,4.3,4.4C129.3,136.3,131.8,134,131.4,131.8z"/>
		<path class="st0" d="M376.9,74.4c62.4,0,124.7,0,187.1,0c0,29.3,0,58.7,0,88c-62.4,0-124.7,0-187.1,0
			C376.9,133.1,376.9,103.7,376.9,74.4z M418.2,130.8c-0.1,1.7,0,3.3-0.2,4.8c-0.6,4.4-2.8,7.5-7.2,8.9c-3.1,1-6.2,1.1-9.4,0.8
			c-4.5-0.4-8.7-1.8-12.5-4.2c-0.5-0.3-1-0.7-1.5-1c-0.1,0.2-0.2,0.3-0.3,0.4c-1.6,3-3.3,5.9-4.9,8.9c-0.3,0.6-0.3,0.9,0.3,1.2
			c2,1.4,4.2,2.5,6.5,3.4c4.9,1.8,10,2.6,15.2,2.7c4.2,0.1,8.3-0.2,12.3-1.4c6.7-2,11.5-6.2,13.9-12.9c1.4-3.9,1.8-7.9,1.8-12
			c0-12.9,0-25.7,0-38.6c0-0.3,0-0.5,0-0.8c-4.5,0-8.8,0-13.3,0c0,2,0,3.9,0,5.9c-1.8-2.1-3.9-3.7-6.3-4.8c-3.2-1.4-6.5-1.8-9.9-1.7
			c-2.8,0-5.4,0.4-8,1.3c-9.5,3.2-14.9,10.9-15.4,20.5c-0.1,2,0.1,4.1,0.5,6.1c1,5.4,3.6,9.8,7.9,13.2c3.7,2.9,7.8,4.5,12.5,5
			c3.8,0.4,7.6,0.2,11.2-1.1C413.9,134.4,416.2,132.9,418.2,130.8z M445.8,91c0,0.3,0,0.5,0,0.7c0,21.2,0,42.4,0,63.7
			c0,0.6,0.2,0.8,0.8,0.8c4.2,0,8.4,0,12.6,0c0.2,0,0.4,0,0.6-0.1c0-7.4,0-14.7,0-22c0.1,0,0.1-0.1,0.2-0.1c0.1,0.1,0.1,0.3,0.2,0.4
			c1.6,1.7,3.5,2.9,5.6,3.7c4.6,1.8,9.4,2,14.1,0.9c6.6-1.5,11.7-5.1,14.9-11.1c3.6-6.6,4.1-13.6,2.1-20.7
			c-2.4-8.6-8.1-14-16.8-16.2c-2.4-0.6-4.9-0.6-7.3-0.6c-3.2,0-6.1,0.8-8.9,2.2c-1.8,0.9-3.3,2.2-4.7,3.7c0-1.8,0-3.6,0-5.3
			C454.7,91,450.3,91,445.8,91z M523.7,92.1c0-0.4,0-0.6,0-0.9c0-3.3,0-6.6,0-9.9c0-0.7-0.1-1-0.9-1c-4.1,0-8.2,0-12.3,0
			c-0.7,0-0.9,0.2-0.9,0.9c0,3.3,0,6.6,0,10c0,0.3,0,0.5,0,0.9c-2.5,0-4.9,0-7.2,0c0,3.6,0,7.2,0,10.8c2.4,0,4.8,0,7.2,0
			c0,0.4,0,0.6,0,0.9c0,5.8,0,11.7,0,17.5c0,1.9,0.1,3.8,0.5,5.6c1,5.8,4.3,9.8,10,11.6c3.9,1.3,7.9,1.4,11.9,0.7
			c2.3-0.4,4.5-1.1,6.5-2.3c0.4-0.3,0.6-0.5,0.4-1c-0.8-1.9-1.5-3.9-2.3-5.9c-0.4-1.1-0.9-2.2-1.3-3.3c-1,0.4-1.9,0.9-2.8,1.2
			c-2,0.6-3.9,0.7-5.8-0.2c-2-1-2.8-2.8-2.8-5c-0.1-6.6,0-13.1,0-19.7c0-0.1,0-0.1,0.1-0.3c3.9,0,7.8,0,11.7,0c0-3.6,0-7.1,0-10.7
			C531.6,92.1,527.7,92.1,523.7,92.1z M544.9,130.8c-0.2,4.8,3.6,8.7,8.3,8.8c5.4,0.2,9.1-3.8,9.1-8.8c0-2.3-0.7-4.4-2.4-6.1
			c-2.1-2.2-4.7-2.6-7.6-2.4C549,122.6,544.9,125.4,544.9,130.8z"/>
		<path class="st0" d="M190.7,75.6c7.2,0.1,13.2,1.4,18.7,4.5c7.9,4.4,13,11.1,15.1,19.9c0.6,2.3,0.7,4.6,0.8,6.9
			c0.2,5.5-0.9,10.8-3.5,15.7c-2.8,5.3-6.8,9.4-12,12.5c-3.5,2.1-7.3,3.4-11.4,4.2c-3.4,0.7-6.9,0.8-10.3,0.6
			c-5.3-0.4-10.3-1.8-14.9-4.4c-1.9-1.1-3.6-2.3-5.3-3.7c-2.6-2.2-4.7-4.8-6.5-7.8c-0.9-1.6-1.7-3.3-2.3-5.1
			c-0.6-1.7-1.1-3.6-1.5-5.4c-0.2-0.8-0.3-1.6-0.3-2.4c-0.1-1.5-0.2-3-0.1-4.4c0.2-3.3,0.7-6.5,1.8-9.6c1.2-3.5,3-6.8,5.4-9.7
			c2.4-3,5.4-5.3,8.7-7.2c3.7-2.1,7.7-3.4,11.8-4.1C187.2,75.8,189.4,75.8,190.7,75.6z M191.5,87.9c-1.5,0.1-3,0.2-4.4,0.5
			c-8.2,1.7-13.6,7.7-14.9,16.1c-0.4,2.6-0.3,5.3,0.2,8c2.1,9.7,9.6,14.5,17.6,15.2c2.2,0.2,4.3-0.1,6.4-0.6
			c9.4-2.3,13.9-10,14.3-17.5c0.1-1.9-0.1-3.9-0.3-5.8c-0.5-3.9-2.2-7.3-4.9-10.1C201.8,89.7,197,87.9,191.5,87.9z"/>
		<path class="st0" d="M300.5,91.1c4.1,0,8.1,0,12.3,0c-0.6,1.6-1.1,3.1-1.7,4.7c-1.6,4.5-3.3,9.1-4.9,13.6
			c-2.6,7.1-5.1,14.2-7.7,21.3c-0.9,2.5-1.8,5.1-2.7,7.6c-0.1,0.4-0.3,0.5-0.7,0.5c-4.1,0-8.2,0-12.3,0c-0.6,0-0.7-0.3-0.9-0.7
			c-1-2.8-2-5.6-3-8.4c-1-2.8-2-5.6-3.1-8.4c-1.2-3.2-2.3-6.4-3.4-9.5c-0.3-0.7-0.6-1.4-0.9-2.1c-0.1,0-0.1,0-0.2,0
			c-0.5,1.3-1,2.7-1.5,4c-2.4,6.4-4.8,12.7-7.1,19.1c-0.7,1.9-1.4,3.7-2.1,5.6c-0.1,0.4-0.3,0.5-0.7,0.5c-4.1,0-8.2,0-12.3,0
			c-0.5,0-0.6-0.2-0.8-0.6c-0.9-2.8-1.9-5.5-2.9-8.2c-1-2.9-2.1-5.7-3.1-8.6c-1.1-3.1-2.3-6.3-3.4-9.4c-1.1-3.1-2.3-6.3-3.4-9.4
			c-1.1-3.1-2.2-6.3-3.4-9.4c-0.2-0.7-0.5-1.3-0.8-2.1c2.2,0,4.3,0,6.4,0c2.1,0,4.1,0,6.2,0c0.4,0,0.6,0.2,0.7,0.5
			c2.4,7,4.8,13.9,7.3,20.9c1.2,3.4,2.4,6.8,3.5,10.1c0.1,0.2,0.1,0.3,0.3,0.6c3.9-10.8,7.8-21.5,11.7-32.1c3.9,0,7.8,0,11.7,0
			c3.7,10.6,7.5,21.3,11.2,31.9c0.1,0,0.1,0,0.2,0C292.8,112.4,296.7,101.8,300.5,91.1z"/>
		<path class="st0" d="M320.2,91.1c4.4,0,8.7,0,13.2,0c0,1.8,0,3.6,0,5.4c2-2,4.2-3.5,6.8-4.5c3.6-1.4,7.3-1.7,11.1-1.5
			c3.6,0.2,7,1.2,10,3.3c3.5,2.5,5.7,5.9,6.7,10.1c0.4,1.7,0.7,3.5,0.8,5.3c0.1,5.4,0.2,10.8,0.2,16.3c0,4.2,0,8.3,0,12.5
			c0,0.3,0,0.5,0,0.8c-4.6,0-9.2,0-13.9,0c0-0.3,0-0.6,0-0.9c0-8.4,0-16.7-0.1-25.1c0-2.5-0.5-4.9-2.1-7c-1.3-1.7-2.9-2.6-4.9-3
			c-1-0.2-2.1-0.3-3.2-0.3c-2.9,0.1-5.6,0.9-7.6,3.1c-1.8,1.8-2.6,4.1-3,6.5c-0.2,1.4-0.2,2.8-0.2,4.2c0,7.2,0,14.5,0,21.7
			c0,0.3,0,0.6,0,0.9c-4.6,0-9.2,0-13.8,0C320.2,122.9,320.2,107,320.2,91.1z"/>
		<path class="st0" d="M70.7,130.5c-0.8-1.6-1.7-3.1-2.4-4.7c-0.2-0.5-0.3-1.1-0.2-1.6c0.1-0.9,0.6-1.4,1.3-1.5
			c0.7-0.1,1.4,0.4,1.7,1.2c0.2,0.6,0.4,1.2,0.6,1.8c1,2.4,3,3.6,5.4,4c0.4,0.1,0.9,0.1,1.3,0.2c1.2,0.3,1.6,0.8,1.3,2
			c-0.2,1-1.1,1.5-2.2,1.2c-0.9-0.2-1.9-0.4-2.8-0.5c-1.1-0.1-2.1,0.3-3.1,0.8c-1.1,0.7-2.4,1.1-3.7,1c-1.2-0.1-2.3-0.3-3.3-0.9
			c-0.8-0.5-1-1.1-0.6-2c0.3-0.9,1-1.2,1.9-1.1c0.4,0.1,0.8,0.2,1.2,0.3C68.3,131.4,69.5,131,70.7,130.5z"/>
		<path class="st0" d="M74.7,102.8c0.7-0.7,1.4-1.4,2.1-1.9c1.7-1.3,3.6-1.4,5.5-0.9c1.2,0.4,1.7,1.7,0.9,2.7
			c-0.2,0.3-0.7,0.5-1.2,0.6c-0.3,0.1-0.7-0.1-1-0.1c-1.7-0.2-3,0.6-3.8,2.2c-0.3,0.6-0.6,1.2-0.9,1.8c-0.2,0.3-0.4,0.6-0.6,0.8
			c-1,0.9-2.2,0.6-2.6-0.7c-0.3-0.8-0.6-1.6-1.1-2.3c-0.8-1-2-1.3-3.2-1.4c-0.4,0-0.7-0.1-1.1-0.1c-0.9-0.2-1.5-1-1.4-1.9
			c0.1-0.9,0.7-1.3,1.7-1.4c2.6-0.2,4.7,0.9,6.5,2.6C74.6,102.7,74.7,102.8,74.7,102.8z"/>
		<path class="st0" d="M82.2,141.7c0.7,0.1,1.6,0.2,2.4,0.4c0.8,0.2,1.4,1.2,1.3,2c-0.1,0.8-1.2,1.4-2.1,1.2c-1.6-0.3-3-0.1-4.4,0.8
			c-0.8,0.6-1.6,1.3-2.4,1.9c-0.4,0.3-0.8,0.6-1.3,0.7c-0.7,0.2-1.3-0.2-1.7-0.8c-0.4-0.6-0.2-1.2,0.2-1.8c1.7-2.2,3.9-3.8,6.8-4.2
			C81.4,141.8,81.7,141.8,82.2,141.7z"/>
		<path class="st0" d="M85.2,76c0.6,0.1,0.9,0.6,1.3,1.1c0.3,0.4,0.2,0.8-0.1,1.2c-0.4,0.5-0.8,0.8-1.5,1c-2.5,0.4-4.1,1.9-5,4.2
			c-0.2,0.5-0.5,1-0.9,1.3c-0.6,0.5-1.2,0.1-1.8-0.2c-0.6-0.4-0.7-0.9-0.6-1.5c0.2-0.6,0.4-1.2,0.7-1.8c1.4-2.6,3.5-4.3,6.3-5
			C84.1,76.1,84.6,76.1,85.2,76z"/>
		<path class="st0" d="M81.4,115.8c0.3,0.1,1,0.3,1.6,0.7c2,1.3,3.3,3.2,3.9,5.5c0.2,0.8-0.3,1.7-1.1,1.9c-0.7,0.2-1.8-0.3-2-1.1
			c-0.5-1.9-1.8-3.2-3.5-4c-0.6-0.3-1.1-1.3-1-1.8C79.5,116.4,80.4,115.8,81.4,115.8z"/>
		<path class="st0" d="M418.3,114c0.2,5.3-4,10-9.9,10.9c-3.3,0.5-6.4,0.1-9.3-1.5c-4-2.2-5.8-5.9-5.6-10.4
			c0.2-6.9,5.5-10.5,10.8-11c3.1-0.3,6,0.1,8.7,1.7C416.7,105.9,418.4,109.2,418.3,114z"/>
		<path class="st0" d="M483.8,114.6c0,3.7-0.8,6.8-3,9.4c-2.7,3.2-6.3,4.4-10.4,4c-6.2-0.6-10-5.1-10.6-11.1
			c-0.4-3.4,0.1-6.7,1.9-9.7c1.9-3.1,4.8-4.8,8.4-5.2c3.2-0.4,6.1,0.2,8.7,2c2.9,2.1,4.3,5,4.8,8.5
			C483.7,113.3,483.8,114.1,483.8,114.6z"/>
	</g>
</g>
</svg>
